<?xml version="1.0" standalone="no"?><!DOCTYPE svg PUBLIC "-//W3C//DTD SVG 1.1//EN" "http://www.w3.org/Graphics/SVG/1.1/DTD/svg11.dtd"><svg t="1646924590578" class="icon" viewBox="0 0 1024 1024" version="1.1" xmlns="http://www.w3.org/2000/svg" p-id="3213" xmlns:xlink="http://www.w3.org/1999/xlink" width="200" height="200"><defs><style type="text/css"></style></defs><path d="M826.15808 146.75968a50.6368 50.6368 0 0 1 36.87424 15.80544 50.72384 50.72384 0 0 1 14.1568 37.62176l-10.55232 242.62656a30.65344 30.65344 0 0 1-8.96512 20.38784l-399.04256 399.04256a50.86208 50.86208 0 0 1-36.20352 14.99648 50.86208 50.86208 0 0 1-36.20352-14.99648l-224.46592-224.46592c-19.96288-19.96288-19.96288-52.44416 0-72.40704l399.04256-399.04256a30.6688 30.6688 0 0 1 20.38784-8.97024l242.62656-10.5472c0.78336-0.03584 1.56672-0.0512 2.33984-0.0512h0.00512m-0.01024-71.68c-1.80736 0-3.62496 0.04096-5.4528 0.11776l-242.62656 10.5472a102.38976 102.38976 0 0 0-67.95776 29.89568l-399.04256 399.04256c-47.98976 47.98976-47.98976 125.79328 0 173.77792l224.46592 224.46592c23.99744 23.99232 55.43936 35.98848 86.8864 35.98848s62.89408-11.99616 86.89152-35.98848l399.04256-399.04256a102.38976 102.38976 0 0 0 29.89568-67.95776l10.55232-242.62656c3.0464-70.17984-53.13024-128.22016-122.65472-128.22016z" fill="#666666" p-id="3214"></path><path d="M617.25184 340.18816a66.0992 66.0992 0 0 1 47.06304 19.49696c12.57472 12.5696 19.49696 29.2864 19.49696 47.06304s-6.92224 34.49344-19.49696 47.06816a66.13504 66.13504 0 0 1-47.06304 19.49184 66.1248 66.1248 0 0 1-47.06304-19.49184c-25.94816-25.95328-25.94816-68.17792 0-94.1312a66.11968 66.11968 0 0 1 47.06304-19.49696m0-71.68c-35.3792 0-70.7584 13.49632-97.75104 40.48896-53.98528 53.98528-53.98528 141.5168 0 195.50208a137.80992 137.80992 0 0 0 97.75104 40.48896c35.3792 0 70.7584-13.49632 97.75104-40.48896 53.98528-53.98528 53.98528-141.5168 0-195.50208a137.81504 137.81504 0 0 0-97.75104-40.48896z" fill="#666666" p-id="3215"></path></svg>